<svg width="622" height="488" viewBox="0 0 622 488" fill="none" xmlns="http://www.w3.org/2000/svg">
  <g class="plan">
    <rect width="622" height="488" fill="white"/>
    <rect width="622" height="488" stroke="white"/>
    <rect x="243" y="42" width="343" height="20" fill="#C4C4C4"/>
    <rect x="41" y="234" width="411" height="20" fill="#C4C4C4"/>
    <rect x="41" y="427" width="405" height="20" fill="#C4C4C4"/>
    <rect x="566" y="62" width="20" height="385" fill="#C4C4C4"/>
    <rect x="41" y="390" width="20" height="37" fill="#C4C4C4"/>
    <rect x="41" y="205" width="20" height="76" fill="#C4C4C4"/>
    <rect x="41" y="42" width="20" height="43" fill="#C4C4C4"/>
    <rect x="61" y="42" width="55" height="20" fill="#C4C4C4"/>
    <line x1="116" y1="48.5" x2="279" y2="48.5" stroke="#C4C4C4"/>
    <line x1="116" y1="55.5" x2="279" y2="55.5" stroke="#C4C4C4"/>
    <line x1="47.5" y1="85" x2="47.5" y2="205" stroke="#C4C4C4"/>
    <line x1="47.5" y1="279" x2="47.5" y2="399" stroke="#C4C4C4"/>
    <line x1="54.5" y1="279" x2="54.5" y2="399" stroke="#C4C4C4"/>
    <line x1="54.5" y1="85" x2="54.5" y2="205" stroke="#C4C4C4"/>
  </g>
</svg>
