<svg width="261" height="215" viewBox="0 0 261 215" fill="none" xmlns="http://www.w3.org/2000/svg">
  <g class="table">
    <path 
      d="M82.393 143.36C75.7531 143.36 77.3467 140.888 69.1132 140.652C68.0834 140.537 67.0379 140.614 66.0438 140.878C65.0496 141.143 64.129 141.589 63.3409 142.188C62.5529 142.787 61.915 143.525 61.4682 144.356C61.0214 145.186 60.7757 146.091 60.7468 147.011C60.7468 151.838 65.6604 152.898 70.3083 152.898C73.69 152.83 77.0623 152.555 80.401 152.073C85.0383 151.645 89.5432 150.446 93.6809 148.541C97.7977 146.304 97.0009 142.419 93.6809 142.065C90.361 141.712 87.4394 144.067 82.393 143.36V143.36Z"
      stroke="#9E9E9E"
      stroke-width="2"
    />
    <path 
      d="M90.2283 77.66H67.2541C58.0129 77.66 50.5215 84.3021 50.5215 92.4956V122.402C50.5215 130.596 58.0129 137.238 67.2541 137.238H90.2283C99.4695 137.238 106.961 130.596 106.961 122.402V92.4956C106.961 84.3021 99.4695 77.66 90.2283 77.66Z"
      stroke="#9E9E9E"
      stroke-width="2"
    />
    <path
      d="M82.3931 71.5372C75.7532 71.5372 77.3468 74.0098 69.1133 74.2453C68.0835 74.3606 67.038 74.2836 66.0439 74.0192C65.0497 73.7548 64.1291 73.3088 63.341 72.7099C62.553 72.111 61.9151 71.3726 61.4683 70.5419C61.0215 69.7113 60.7758 68.807 60.7469 67.8871C60.7469 63.0597 65.6605 62 70.3084 62C73.687 62.0286 77.0593 62.2647 80.4011 62.7065C85.0384 63.1353 89.5433 64.3335 93.681 66.2387C97.7978 68.4759 97.001 72.3614 93.681 72.7146C90.3611 73.0678 87.4395 71.5372 82.3931 71.5372ZM40.0303 82.0163C41.2162 82.0163 42.3905 82.2234 43.4861 82.6257C44.5817 83.0281 45.5772 83.6179 46.4157 84.3613C47.2543 85.1048 47.9194 85.9874 48.3732 86.9588C48.8271 87.9302 49.0606 88.9714 49.0606 90.0228V122.402C49.0606 123.453 48.8271 124.495 48.3732 125.466C47.9194 126.437 47.2543 127.32 46.4157 128.064C45.5772 128.807 44.5817 129.397 43.4861 129.799C42.3905 130.201 41.2162 130.409 40.0303 130.409C37.6353 130.409 35.3384 129.565 33.6449 128.064C31.9514 126.562 31 124.526 31 122.402V90.0228C31 87.8993 31.9514 85.8628 33.6449 84.3613C35.3384 82.8598 37.6353 82.0163 40.0303 82.0163V82.0163Z"
      stroke="#9E9E9E"
      stroke-width="2"/>
    <path
      d="M120.14 1H220.24V215H120.14V1Z"
      stroke="#9E9E9E"
      stroke-width="2"
    />
  </g>  
</svg>
